<svg width="3002" height="2127" viewBox="0 0 3002 2127" fill="none" xmlns="http://www.w3.org/2000/svg">
<g clip-path="url(#clip0_1_2)">
<path fill-rule="evenodd" clip-rule="evenodd" d="M2694.57 231.678C2653.26 232.598 2612.73 259.875 2591.76 296.146C2587.01 304.365 2578.15 326.622 2578.15 339.045C2563.22 331.149 2554.99 317.966 2516.31 302.554C2479.49 287.884 2455.09 284.797 2413.13 284.797C2404.93 284.797 2381.68 287.053 2376.96 289.318C2369.08 274.433 2328.08 225.526 2314.79 205.684C2323.64 195.504 2328.36 164.457 2328.36 152.565C2328.36 109.686 2308.6 80.5505 2284.03 59.0103C2269.64 46.4013 2251.03 37.0495 2232.02 33.0308C2196.13 25.4447 2161.9 31.6459 2132.81 50.8329C2120.35 59.0514 2109.87 69.1037 2101 81.1868C2096.81 86.8897 2092.27 94.1137 2089.11 100.945C2070.87 140.409 2075.11 186.275 2100.05 221.504C2102.26 224.632 2104.31 227.329 2107.11 230.265L2122.38 245.507C2130.84 253.109 2141.12 259.217 2151.86 263.499C2167.42 269.706 2184.97 274.626 2202.9 274.626C2207.03 282.431 2243.66 329.373 2251.66 340.013C2254.16 343.337 2257.14 346.061 2258.28 350.348C2254.3 356.297 2242.18 366.86 2234.87 376.662C2230.22 382.884 2216.99 400.858 2215.33 407.987C2211.56 405.46 2209.11 400.159 2205.46 396.38C2175.92 365.79 2142.51 348.088 2095.52 348.088C2042.32 348.088 2002.11 384.254 2001.71 384.254C1997.71 384.254 1991.27 381.998 1987.96 381.046C1981.37 379.151 1981.66 379.056 1979.51 372.544C1976.95 364.78 1972.38 356.381 1968.45 349.695C1951.26 320.431 1925.82 299.168 1894.66 285.599C1853.98 267.88 1809.6 270.675 1769.51 286.566C1751.88 293.554 1760.97 297.632 1724.95 268.819L1683.45 236.853C1681.18 235.084 1674.76 230.271 1673.76 228.459C1672.53 226.232 1670.76 216.661 1669.87 213.13C1666.19 198.373 1661.33 186.259 1654.34 173.28C1621.83 112.905 1555.48 67.8022 1481.78 67.8022C1435.79 67.8022 1397.77 78.3129 1360.16 103.284C1320.21 129.808 1291.95 170.511 1280.34 217.867C1270.88 256.486 1274.85 303.513 1291.9 339.047C1286.08 342.946 1273.29 359.993 1268.81 365.691L1212.3 433.502C1210.08 436.328 1208.99 437.341 1206.64 440.28C1203.96 443.637 1202.54 443.57 1201.48 447.545C1197.49 444.625 1196.83 435.405 1195.12 430.168C1185.17 399.62 1177.07 369.192 1168.22 338.394L1157.4 301.752C1170.76 292.805 1184.99 274.973 1192.44 259.943C1215.07 214.329 1212.61 166.775 1184.53 124.308C1161.97 90.1803 1118.75 65.5434 1077.15 65.5434C1052.66 65.5434 1034.11 68.7711 1013.52 77.6445C972.47 95.3407 934.734 143.05 934.734 189.864C934.734 223.407 938.076 243.435 955.74 270.576C958.395 274.655 961.253 278.885 964.404 282.255C968.272 286.39 970.43 289.79 974.559 293.575C985.608 303.703 998.089 311.89 1011.59 318.71C1013.95 319.901 1016.1 321.049 1018.53 321.94C1030.98 326.502 1027.81 327.449 1031.8 340.318C1038.75 362.771 1050.65 400.001 1055.67 421.552C1049.74 421.552 1047.19 420.591 1043.17 420.476L1005.74 423.61C965.676 429.355 930.4 443.682 897.431 465.625C885.781 473.379 889.674 473.51 865.787 457.718C813.909 423.419 759.273 392.895 707.549 358.261L564.914 448.455C517.41 479.117 468.364 507.602 421.132 538.632L310.771 607.979C303.129 612.555 296.348 617.369 288.58 621.955L111.438 733.024C100.147 740.442 5.39119 800.985 6.10352e-05 802.424V1682.84C25.2297 1699.73 51.5337 1714.73 77.0793 1731.22L286.728 1862.9C320.408 1882.78 352.721 1904.75 386.074 1925.18C390.043 1927.61 393.279 1929.59 397.183 1932.15L540.921 2022.37C544.891 2024.8 548.125 2026.78 552.03 2029.35C559.696 2034.38 566.845 2038.51 574.165 2043.38C595.875 2057.83 619.116 2070.81 640.863 2085.19C644.449 2087.56 648.114 2089.77 651.947 2092.19C655.915 2094.68 659.043 2096.71 663.108 2099.11L707.549 2127C728.423 2115.96 754.547 2098.26 774.455 2085.41L909.195 2000.88C915.081 1997.01 920.045 1994.16 925.91 1990.47L1026.51 1927.18C1070.75 1898.63 1116.32 1871.66 1160.57 1843.11C1166.34 1839.38 1172.22 1835.4 1177.79 1832.08L1227.83 1800.74C1233.33 1797.49 1239.44 1791.84 1245.56 1790.21C1246.74 1794.64 1251.23 1798.13 1254.24 1801.87L1272.54 1824.26C1275.9 1828.51 1278.44 1831.14 1282 1835.14L1291.62 1845.87C1312.33 1866.54 1333.32 1886.55 1357.67 1903.01C1362.3 1906.15 1365.64 1908.7 1370.33 1911.82L1408.26 1934.93C1412.89 1937.6 1417.21 1939.6 1422.24 1942.42L1449.39 1955.96C1514.63 1988.9 1610.04 2012.85 1681.84 2012.85C1755.68 2012.85 1828 2001.98 1894.17 1975.4C1917.79 1965.91 1939.69 1954.91 1961.38 1942.02C1985.44 1927.73 1993.3 1918.93 2011.71 1904.19L2030.82 1886C2033.42 1883.42 2034.64 1882.25 2036.75 1879.49C2039.09 1876.43 2040.7 1875.33 2043.19 1872.38L2064.69 1844.14C2066.88 1841.24 2067.8 1839.57 2069.58 1836.6C2071.16 1833.95 2072.6 1832.04 2074.41 1829C2077.75 1823.4 2080.93 1818.3 2083.85 1812.45C2107.92 1764.28 2126.04 1709.55 2126.04 1653.46C2129.02 1656.88 2137.59 1688.69 2139.17 1693.44C2168.05 1780.05 2218.98 1860.09 2292.67 1915.18L2324.06 1936.91C2438.87 2011.12 2620.32 2031.39 2750.85 1995.67C2782.06 1987.13 2812.6 1975.26 2840.74 1960.11C2845.22 1957.7 2848.37 1956.41 2852.59 1953.87C2900.19 1925.1 2934.64 1898.35 2969.58 1854.98C2979.72 1842.4 2993.26 1828.11 3002 1815.07C2991.6 1799.54 2932.92 1728.82 2916.45 1708.48L2798.9 1562.68C2793.21 1555.63 2756.27 1507.75 2751.08 1504.27C2740.19 1511.56 2711.25 1545.07 2698.23 1556.53C2694.62 1559.71 2692.77 1560.84 2689.19 1564.45L2661.32 1589.7C2633.21 1611.85 2592.51 1626.58 2557.3 1605.36C2542.93 1596.7 2531.44 1584.22 2522.53 1570.06C2517.77 1562.49 2513.98 1554.88 2509.94 1546.48C2480.21 1484.74 2477.63 1384.6 2507.32 1318.18C2519.93 1289.98 2539.61 1260.75 2570.08 1249.82C2619.44 1232.11 2662.34 1249.78 2693.92 1290.18L2743.43 1351.44C2746.32 1355 2747.52 1358.35 2752.21 1359.61C2753.27 1355.64 2752.83 1357.63 2755.21 1354.7C2756.8 1352.73 2757.74 1351.48 2759.15 1349.59L2782.57 1319.89C2817.81 1272.6 2856.91 1228.08 2892.04 1180.71C2917.26 1146.71 2945.47 1114.76 2970.67 1080.78C2973.33 1077.19 2975.43 1074.63 2978.11 1071.26C2986.07 1061.29 2994.9 1051.49 3002 1040.89L2980.52 1014.91C2968.29 999.213 2954.63 984.003 2941.26 969.396L2908.83 940.797C2890.42 926.342 2871.56 912.999 2850.9 901.519C2848.11 899.967 2846.18 899.28 2843.4 897.723C2840.16 895.912 2839.03 894.978 2835.48 893.204C2821.78 886.347 2798.28 874.727 2783.86 871.367C2786.94 858.114 2798.55 849.883 2798.55 814.857C2798.55 789.162 2788.84 760.526 2772.27 742.809C2770.84 741.281 2770.29 740.914 2769 739.3C2763.85 732.871 2756.85 727.075 2749.95 722.185C2745.18 718.809 2737.87 714.259 2732.04 711.83C2712.78 703.806 2697.84 700.709 2674.22 700.709C2670.32 700.709 2669.84 701.544 2666.31 701.839C2663.95 693.007 2627.13 650.956 2619.97 637.418C2651.69 590.045 2662.13 546.25 2658.36 488.272C2657.92 481.516 2656.13 476.206 2656.13 469.021C2662.91 469.021 2668.54 472.011 2674.48 473.279C2731.2 485.388 2789.88 456.923 2814.39 408.004C2824.86 387.09 2826.81 370.309 2826.81 345.831C2826.81 332.495 2822.52 322.637 2820.02 311.926C2844.98 317.74 2883.53 307.208 2902.22 299.181C2919.91 291.584 2936.32 281.088 2949.72 267.568C2963.89 253.274 2973.51 240.376 2982.8 221.528C3001.12 184.362 3002.38 130.639 2983.55 93.0324C2965.35 56.6886 2940.88 32.7348 2905.56 15.0496C2869.47 -3.02218 2824.6 -3.87485 2785.7 7.49367C2763.89 13.8688 2745.98 25.1404 2729.25 39.2011C2713.49 52.4535 2698.28 70.3185 2690.19 89.4227C2677.72 118.845 2678.74 119.748 2675.16 151.299C2672.01 179.039 2682.3 208.508 2694.56 231.682L2694.57 231.678Z" fill="#FEFEFE"/>
<path fill-rule="evenodd" clip-rule="evenodd" d="M225.607 1751.45C227.738 1747.56 226.403 1384.44 226.403 1345.57C226.403 1337.04 225.244 949.031 226.674 939.608H480.628L480.643 1098.2C486.233 1097.81 486.162 1093.69 488.342 1088.84C526.513 1003.93 588.725 929.572 687.912 917.206C730.775 911.863 765.844 916.09 806.047 925.166L806.029 1203.82C797.773 1201.89 788.252 1198.32 779.727 1195.86C751.498 1187.74 721.575 1183.3 691.81 1183.73C614.252 1184.85 551.924 1207.23 516.082 1276.53C500.723 1306.23 491.831 1344.62 487.152 1381.93C476.75 1464.89 480.644 1559.32 480.644 1644.17C480.644 1733.16 479.462 1822.94 480.685 1911.84L595.18 1983.9C628.005 2003.91 664.055 2028.02 696.129 2047.22C699.873 2049.46 707.145 2054.77 711.015 2055.8C738.304 2037.54 786.098 2008.06 815.112 1990.3C824.101 1984.8 831.66 1979.83 840.717 1974.3L893.009 1941.26C902.117 1935.28 910.323 1930.65 919.529 1924.63L919.6 939.978L1173.55 939.607L1174.22 1764.67C1209.91 1743.37 1249.27 1717.13 1285.58 1694.9C1293.29 1690.18 1300.33 1685.86 1307.79 1680.84L1353.24 1652.7V845.417L1281.82 800.578C1269.75 793.351 1258.31 785.267 1245.84 777.893L1219.03 760.962C1215.75 758.915 1212.43 757.686 1210.29 754.772C1211.05 751.911 1214.18 747.094 1215.64 744.125C1217.51 740.319 1218.91 736.426 1220.66 732.078C1225.85 719.191 1228.74 707.06 1230.75 693.113C1231.39 688.737 1231.48 682.657 1232.24 677.54C1233.75 667.52 1229.91 651.684 1231.47 645.997C1229.39 642.515 1226.6 628.227 1225.31 622.535L1225.23 619.895C1222.92 617.808 1222.37 613.812 1221.15 610.605C1219.41 606.061 1217.55 604.784 1218.6 600.141C1215.66 598.105 1218.35 600.444 1216.55 598.325C1215.62 597.224 1216.08 598.036 1215.15 596.311C1214 594.186 1213.99 593.739 1213.49 591.315C1210.79 589.222 1205.4 579.408 1203.57 575.613C1202.13 573.399 1202.37 574.029 1201.76 571.062C1198.28 570.285 1197.98 568.298 1195.42 564.893C1193.58 562.449 1191.2 560.2 1190.19 557.484L1167.62 534.749C1163.83 534.028 1159.15 529.407 1155.56 526.892C1151.91 524.333 1146.92 521.74 1144.15 519.236C1086.54 484.19 1009.27 481.754 945.374 519.815C940.698 522.6 936.976 525.152 932.48 528.255C924.454 533.795 904.015 551.737 899.844 559.617C894.116 558.283 853.302 531.548 847.361 527.833L743.88 462.78C735.137 457.279 727.011 452.35 718.277 446.782C707.771 440.082 711.912 441.009 691.362 453.591L639.538 486.034C635.423 488.754 631.602 491.04 627.176 493.939C622.594 496.94 618.447 499.409 613.984 502.081L536.056 551.086C527.442 556.779 518.758 561.643 509.818 567.515C500.82 573.425 492.6 578.259 483.574 583.938C414.149 627.615 345.373 670.784 275.957 714.455L94.3886 828.355C90.2078 831.119 71.2066 843.539 67.718 844.351V1652.7L223.055 1750.14C225.303 1751.46 224.097 1750.83 225.609 1751.45L225.607 1751.45Z" fill="#009933"/>
<path fill-rule="evenodd" clip-rule="evenodd" d="M1380.98 1243.19C1380.98 1354.29 1413.95 1438.48 1502.66 1491.61C1507.93 1494.77 1513.3 1497.87 1518.95 1500.91C1525.32 1504.34 1530.5 1506.27 1537.1 1509.44C1585.75 1532.8 1641.98 1543.66 1694.41 1558C1742.51 1571.17 1809.85 1588.5 1809.85 1649.5C1809.85 1678.68 1792.75 1695.42 1772.87 1705.31C1741.08 1721.13 1697.98 1723.91 1662.3 1718.07C1634.52 1713.53 1608.03 1703.5 1585.65 1686.99C1578.68 1681.85 1572.54 1677.17 1565.86 1671.58L1523.51 1624.33C1521.18 1620.95 1517.42 1616.8 1516.47 1613.24C1511.64 1614.53 1508.6 1621.24 1505.8 1624.97L1438.13 1715.16C1431.05 1724.61 1366.31 1808.49 1360.71 1819.06C1398.36 1862.35 1438.52 1892.73 1491.9 1916.13C1567.59 1949.31 1674.11 1961.08 1765.79 1947.78C1790.7 1944.16 1816.87 1939.25 1838.79 1932.23C1865.56 1923.66 1891.35 1914.1 1915.8 1900.45C1929.86 1892.6 1943.85 1883.89 1956.25 1873.69C1972.77 1860.12 1987.03 1847.28 2000.35 1830.33C2046.75 1771.28 2064.82 1708.58 2064.82 1624.97C2064.82 1564.82 2053.52 1509.65 2023.83 1461.19C2015.71 1447.94 2006.1 1436.6 1996.23 1424.8C1982.33 1408.18 1949.3 1384.47 1930.76 1375.07C1924.52 1371.91 1919.63 1368.65 1913.32 1365.84C1889.31 1355.17 1864.94 1345.36 1839.04 1337.72C1812.19 1329.79 1784.85 1322.46 1757.57 1315.71C1738.03 1310.87 1717.2 1305.16 1698.74 1297.73C1686.57 1292.83 1675.41 1288.05 1664.76 1280.51C1645.99 1267.23 1635.95 1250.79 1635.95 1225.06C1635.95 1213.62 1639.64 1200.68 1643.4 1193.04C1646.62 1186.5 1650.97 1180.88 1655.59 1175.38C1662.72 1166.9 1675.84 1159.09 1686.74 1155.32C1731.23 1139.97 1783.06 1149.73 1821.37 1175.15C1837.65 1185.96 1851.39 1199.03 1863.53 1214.06C1866.47 1217.7 1873.83 1226.31 1874.92 1230.39C1879.5 1229.17 1882.78 1223.36 1885.59 1219.73L1973.39 1115.54C1976.9 1111.41 1979.89 1108.44 1983.29 1104.1L2002.69 1080.85C2006.16 1076.96 2009.49 1073.31 2012.54 1069.36C2015.4 1065.66 2019.09 1061.65 2022.38 1057.87C2025.64 1054.14 2030.4 1049.87 2031.75 1044.84L2008.04 1017.35C2005.89 1015.2 2005.49 1015.46 2003.26 1013.6C1995.28 1006.95 1988.46 999.565 1980.09 993.033C1921.83 947.568 1851.15 925.565 1778.02 917.753L1728.77 914.726C1721.86 914.746 1718.07 915.302 1712.71 915.745C1707.16 916.204 1701.46 915.351 1695.99 916.092C1665.54 920.215 1652.21 920.874 1621.02 928.597C1602.31 933.23 1586.14 939.277 1569.35 946.27C1531.6 961.996 1514.65 975.517 1483.85 999.431C1472.32 1008.38 1459.22 1023.47 1449.99 1034.9C1403.15 1092.91 1380.98 1163.31 1380.98 1243.19H1380.98Z" fill="black"/>
<path fill-rule="evenodd" clip-rule="evenodd" d="M2169.37 1417.02C2169.37 1476.63 2169.86 1499.85 2180.49 1559.47C2195.09 1641.38 2238.22 1742.6 2296.06 1804.39C2320.9 1830.91 2343.16 1854.28 2374.62 1875.16C2448.69 1924.32 2524.31 1953.43 2627.04 1953.43C2665.29 1953.43 2709.01 1946.77 2742.64 1936.75C2749.63 1934.66 2756.32 1932.85 2762.84 1930.28C2818.02 1908.51 2834.25 1899.36 2881.1 1861.87C2883.66 1859.83 2885.25 1857.95 2887.6 1855.57C2892.92 1850.18 2895.39 1850.15 2901.21 1842.52L2920.41 1821.19C2917.82 1816.28 2903.67 1799.26 2900 1794.67L2805.66 1675.7C2799.08 1667.32 2755.67 1611.53 2751.86 1608.97C2726.65 1646.59 2681.83 1683.62 2633.44 1683.62C2584.33 1683.62 2553.68 1675.92 2516.51 1651.21C2490.96 1634.23 2468.68 1605.91 2454.92 1578.4C2428.78 1526.12 2424.34 1481.96 2424.34 1421.28C2424.34 1390.11 2431.3 1351.67 2439.13 1328.36C2462.13 1259.95 2503.46 1210.21 2572.85 1191.16C2633.35 1174.54 2686.14 1187.07 2730.79 1231.19C2735.33 1235.67 2737.97 1239.62 2742.01 1244.5C2745.55 1248.78 2749.28 1254.32 2751.86 1259.19C2757.18 1255.62 2854.84 1130.77 2867.53 1114.62C2871.4 1109.69 2874.55 1105.84 2878.48 1101.03L2920.41 1048.04C2903.32 1022.53 2854.16 982.322 2827.6 968.054C2818.54 963.184 2809.39 957.192 2799.71 953.275C2760.98 937.596 2751.73 930.887 2700.2 921.582C2680.98 918.113 2640.22 914.111 2620.6 914.699C2613.1 914.925 2613.65 915.754 2600.33 915.764L2561.63 919.739C2544.63 922.198 2522.78 926.412 2507.68 930.855C2496.51 934.139 2484.97 937.234 2474.48 941.394C2454.26 949.411 2432.62 957.469 2414.12 968.505C2372.12 993.572 2352.27 1006.51 2315.79 1042.97C2300.9 1057.85 2288.26 1071.91 2275.44 1089.02C2221.82 1160.52 2188.79 1245.13 2175.95 1336.15C2172.4 1361.28 2169.37 1388.94 2169.37 1417.02L2169.37 1417.02Z" fill="black"/>
<path fill-rule="evenodd" clip-rule="evenodd" d="M1190.19 557.484C1191.19 560.2 1193.58 562.449 1195.42 564.893C1197.98 568.298 1198.28 570.285 1201.75 571.062L1279.87 477.739C1283.84 473.195 1287.09 469.06 1291.04 464.375L1313.32 437.59C1320.78 428.097 1328.1 420.263 1335.56 410.771C1339.9 405.26 1377.68 359.204 1380.98 356.996C1383.8 358.88 1384.57 360.308 1387.13 362.584C1424.5 395.894 1478.02 403.702 1525.95 387.8C1536.75 384.218 1548.84 377.843 1557.63 371.478C1562.93 367.639 1566.61 364.936 1571.13 360.448C1583.84 347.84 1593.43 339.14 1602.13 318.917C1606.14 309.591 1612.48 292.64 1612.48 280.214C1623.99 287.914 1677.17 330.499 1691.9 341.599C1695.34 344.191 1697.53 346.117 1700.88 348.612C1706.46 352.766 1751.26 388.939 1755.44 390.055C1749.63 401.026 1744.95 415.905 1744.71 429.484C1744.59 436.638 1745.84 439.213 1745.84 445.509L1637.02 492.431C1633.53 477.471 1606.05 454.718 1590.11 446.546C1570.24 436.355 1539.41 430.968 1510.7 437.605C1466.96 447.717 1425.79 487.348 1425.79 540.42L1232.08 570.73C1227.09 571.495 1223.36 572.264 1218.37 573.029C1213.52 573.773 1207.03 574.198 1203.57 575.612C1205.4 579.408 1210.79 589.222 1213.49 591.315C1220 592.01 1311.52 576.536 1319.72 575.156C1326.56 574.003 1418.16 558.549 1426.86 558.549C1431.57 568.376 1429.58 587.437 1456.46 614.269C1458.89 616.691 1460.86 618.976 1463.44 621.158C1466.23 623.518 1468.99 625.342 1471.95 627.576C1511.06 657.034 1574.07 654.922 1614.37 619.086L1625.02 608.405C1628.22 605.061 1628.9 603.574 1631.54 599.989C1648.23 577.305 1656.84 534.149 1644.49 508.428C1653.59 506.308 1662.08 500.898 1670.7 497.306C1682.95 492.206 1742.12 464.68 1751.17 462.572C1760.03 479.301 1768.52 492.413 1785.63 502.776C1799.83 511.377 1821.05 519.942 1845.85 516.693C1885.87 511.453 1915.68 485.779 1925.07 445.509C1931.18 448.441 2020.46 473.807 2026.41 474.302C2007.12 557.08 2120.37 598.132 2165.55 529.137C2169.36 523.314 2175.58 509.607 2175.77 500.963H2256.85C2256.85 541.665 2259.5 565.017 2279.58 598.742C2302.98 638.024 2342.02 663.606 2386.14 674.586C2468.72 695.138 2524.02 647.866 2531.02 645.996L2544.59 664.429C2567.58 695.04 2591.26 725.706 2613.18 756.897C2622.01 769.477 2632.32 781.407 2640.91 794.228C2624.91 818.108 2633.16 845.171 2652.47 859.451C2673.06 874.676 2706.87 873.476 2723.99 851.683L2731.26 840.822C2753.12 794.112 2696.17 753.008 2653.71 781.431C2637.01 756.499 2616.53 732.391 2599.3 707.855C2582.02 683.259 2561.72 659.383 2544.89 634.265C2551.16 624.906 2562.54 617.077 2573.5 598.873C2601.53 552.301 2604.22 493.215 2580.1 447.642C2591.48 444.99 2666.16 408.182 2670.99 407.816C2673.22 407.647 2686.89 416.863 2706.01 416.759C2741.96 416.565 2773.07 382.305 2762.69 346.171C2759.72 335.859 2754.36 324.563 2745.46 318.605C2749.96 311.888 2754.73 307.385 2759.78 300.931L2781.73 274.884C2783.85 272.147 2786.51 268.916 2788.96 266.113C2791.63 263.055 2793.68 260.64 2796.33 257.489C2798.87 254.483 2802.06 251.993 2803.07 248.222C2809.77 248.371 2815.46 251.146 2821.49 252.199C2841.05 255.612 2861.81 252.023 2878.98 245.194C2887.82 241.677 2899.51 233.479 2905.75 227.165C2914.7 218.113 2919.31 213.125 2925.4 200.948C2930.2 191.346 2933.07 181.705 2934.29 172.25V151.343C2928.82 108.849 2890.54 74.2639 2845.04 71.196H2831.8C2823.61 71.7508 2815.27 73.3476 2806.93 76.1201C2784.41 83.5964 2767.39 97.46 2755.92 115.776C2736.73 146.388 2737.68 187.462 2762.19 217.633C2765.84 222.127 2768.65 225.483 2772.93 229.286C2775.85 231.881 2783.29 237.746 2787.06 238.623C2785.81 243.99 2784.25 243.65 2781.12 247.609L2730.52 307.941C2707.71 302.628 2695 298.513 2672.56 311.858C2647.79 326.591 2636.49 361.048 2651.75 386.683C2653.7 389.954 2655.07 391.572 2656.91 394.321C2643.66 400.677 2576.48 431.148 2570.5 431.646C2562.74 416.994 2548.61 403.819 2536.03 393.585C2521.89 382.08 2507.4 374.251 2489.12 366.893C2425.99 341.474 2365.76 367.17 2363.53 366.594C2362.74 366.389 2245.1 211.469 2240.85 203.432C2279.45 177.595 2270.22 119.18 2224.21 103.826C2207.49 98.2446 2190.6 101.077 2177.89 107.442C2135.62 128.612 2134.7 188.993 2178.82 208.919C2195.09 216.265 2205.83 216.392 2224.85 211.963C2226.94 215.91 2229.06 218.291 2231.86 222.017C2234.74 225.864 2236.86 228.69 2239.63 232.379L2315.98 334.145C2321.31 341.25 2325.74 347.148 2331.07 354.253C2336.48 361.465 2341.63 367.914 2346.46 375.125C2331.33 378.651 2301.19 407.248 2292.39 418.117C2279.37 434.211 2268.56 452.776 2263.02 472.999C2262.41 475.196 2261.05 480.757 2260.05 482.834H2175.77C2175.45 468.505 2163.48 449.754 2155.79 442.023C2145.86 432.035 2131.96 423.957 2115.28 420.66C2107.63 419.146 2096.48 418.929 2087.63 420.323C2077.76 421.878 2072.03 424.32 2064.46 428.086C2050.09 435.236 2041.36 445.551 2032.82 458.306C2024.67 454.401 1989.49 445.448 1980.08 442.771C1962.35 437.724 1943.94 431.527 1926.13 427.38C1926.13 391.455 1898.36 360.37 1866.27 349.65C1846.25 342.958 1828.99 342.907 1807.92 348.664C1793.44 352.619 1773.52 365.126 1766.11 376.192C1752.99 367.408 1740.25 357.034 1728.04 347.067L1708.81 332.163C1701.99 327.112 1696.4 322.298 1689.6 317.231C1686.04 314.57 1683.32 312.616 1679.94 309.827C1668.06 300.014 1624.65 265.962 1612.49 257.819C1612.49 220.91 1585 179.86 1554.43 161.217C1518.85 139.511 1471.16 130.938 1431.12 146.903C1403.89 157.758 1382.66 172.622 1365.42 196.408C1341.95 228.798 1334.53 279.333 1353.59 317.197C1355.91 321.811 1357.57 325.435 1359.99 329.99C1362.6 334.878 1365.45 337.983 1368.18 342.066C1367.01 346.457 1281.6 447.916 1268.64 463.308L1235.1 503.37C1228.63 510.641 1193.96 550.83 1190.19 557.483L1190.19 557.484Z" fill="black" stroke="black" stroke-width="0.755984" stroke-miterlimit="22.9256"/>
<path fill-rule="evenodd" clip-rule="evenodd" d="M1218.6 600.141C1217.55 604.784 1219.4 606.061 1221.15 610.605C1222.37 613.812 1222.92 617.807 1225.22 619.895C1228.75 622.552 1247.71 626.556 1252.96 627.868L1564.48 706.783C1583.43 711.519 1601.88 716.398 1621.45 721.286C1631.32 723.753 1639.88 725.695 1649.44 728.489C1654.41 729.94 1659.49 731.06 1663.91 732.162C1668.46 733.301 1674.19 735.208 1678.63 735.577C1678.63 763.372 1690.5 793.603 1707.11 815.874C1712.68 823.332 1718.23 829.133 1724.75 835.574C1735.19 845.907 1755.84 858.859 1769.61 864.312C1799.39 876.105 1830.6 880.166 1864.53 873.419C1874.61 871.415 1883.81 868.578 1892.29 864.913C1903.25 860.178 1917.79 852.467 1926.88 845.098C1932.25 840.746 1942.68 832.15 1946.4 827.289C1948.92 823.994 1951.78 820.98 1954.7 817.451C1959.97 811.058 1965.24 802.462 1969.17 794.59C1975.18 782.512 1980.7 767.483 1982.64 753.67C1989.11 707.478 1975.74 665.191 1942.93 632.4C1935.47 624.944 1927.67 617.691 1918.61 611.926C1858.94 573.935 1781.64 578.649 1731.22 621.784C1717.94 633.138 1706.05 646.247 1697.49 661.651C1690.63 673.985 1679.69 699.269 1679.69 717.447C1605.62 700.196 1524.09 677.765 1449.04 659.009L1246.56 607.606C1242.21 606.518 1220.48 601.789 1218.6 600.141L1218.6 600.141Z" fill="black" stroke="black" stroke-width="0.755984" stroke-miterlimit="22.9256"/>
<path fill-rule="evenodd" clip-rule="evenodd" d="M1207.71 757.253L975.38 611.012C966.758 605.873 902.967 564.19 896.358 562.409C892.466 571.327 874.268 588.27 864.62 625.72C857.224 654.428 856.662 681.703 863.763 710.916C895.728 842.433 1064.34 888.269 1163.28 808.021C1178.83 795.413 1197.52 776.967 1207.71 757.254L1207.71 757.253Z" fill="#FEFEFE"/>
<path fill-rule="evenodd" clip-rule="evenodd" d="M1231.47 645.997L1244.43 653.462C1249.02 655.948 1253.16 658.569 1257.97 661.255L1367.85 724.174C1393.72 738.627 1426.9 758.879 1451.39 771.834C1451.03 776.212 1449.05 782.53 1448.46 787.03C1444.17 819.824 1467.6 853.583 1501.39 865.823C1539.18 879.512 1585.16 862.268 1602.53 824.808C1631.32 762.729 1567.97 699.101 1501.38 721.562C1493.96 724.064 1482.76 730.202 1477.29 734.808C1473.91 737.663 1470.89 741.169 1467.65 744.365C1465.58 746.414 1464.7 747.18 1463.12 749.435C1461.38 751.928 1461.31 752.976 1458.86 754.772C1454.2 753.686 1325.8 679.681 1313.16 672.204C1303.13 666.274 1293.96 661.283 1284.11 655.383L1240.62 630.613C1236.57 628.218 1229.5 623.548 1225.31 622.536C1226.6 628.227 1229.39 642.515 1231.47 645.997H1231.47Z" fill="black" stroke="black" stroke-width="0.755984" stroke-miterlimit="22.9256"/>
<path fill-rule="evenodd" clip-rule="evenodd" d="M1144.15 519.236C1146.92 521.74 1151.91 524.333 1155.56 526.892C1159.15 529.407 1163.82 534.028 1167.62 534.749C1164.67 524.056 1161.22 512.921 1157.88 502.162C1154.54 491.384 1151.81 480.146 1148.28 469.104C1136.58 432.541 1120.04 374.395 1109.39 337.351C1106.09 325.853 1103.4 315.572 1099.74 304.342C1097.84 298.508 1096.75 293.469 1094.94 287.813C1093.6 283.629 1091.45 274.188 1089.74 270.617C1112.46 268.727 1138.46 244.301 1143.7 217.92C1150.59 183.247 1131.1 158.707 1110.64 146.277C1085.75 131.154 1051.81 134.304 1029.07 151.318C1009.02 166.316 994.395 194.899 1006.38 228.11C1013.11 246.788 1028.81 260.706 1046.74 267.74C1055.34 271.112 1058.92 270.973 1068.49 272.664C1074.1 273.657 1072.56 275.266 1077.06 290.754L1095.47 353.398C1097.78 360.48 1099.47 367.037 1101.61 373.928C1103.6 380.35 1105.91 388.332 1107.65 394.546L1144.15 519.236H1144.15Z" fill="black" stroke="black" stroke-width="0.755984" stroke-miterlimit="22.9256"/>
</g>
<defs>
<clipPath id="clip0_1_2">
<rect width="3002" height="2127" fill="white"/>
</clipPath>
</defs>
</svg>