<?xml version="1.0" encoding="UTF-8"?>
<!DOCTYPE svg PUBLIC "-//W3C//DTD SVG 1.1//EN" "http://www.w3.org/Graphics/SVG/1.1/DTD/svg11.dtd">
<!-- Creator: CorelDRAW X7 -->
<svg xmlns="http://www.w3.org/2000/svg" xml:space="preserve" width="109.658mm" height="96.5072mm" version="1.1" style="shape-rendering:geometricPrecision; text-rendering:geometricPrecision; image-rendering:optimizeQuality; fill-rule:evenodd; clip-rule:evenodd"
viewBox="0 0 11504 10125"
 xmlns:xlink="http://www.w3.org/1999/xlink">
 <defs>
  <style type="text/css">
   <![CDATA[
    .str1 {stroke:#006633;stroke-width:20.982}
    .str0 {stroke:#00A846;stroke-width:20.982}
    .str2 {stroke:#006633;stroke-width:7.99413}
    .fil5 {fill:none}
    .fil0 {fill:#006633}
    .fil2 {fill:#00A846}
    .fil1 {fill:#01A847}
    .fil4 {fill:#FEFEFE}
    .fil3 {fill:#006633;fill-rule:nonzero}
    .fil6 {fill:#00A846;fill-rule:nonzero}
   ]]>
  </style>
 </defs>
 <g id="Camada_x0020_1">
  <metadata id="CorelCorpID_0Corel-Layer"/>
  <g id="_360671128">
   <g>
    <path class="fil0" d="M189 7655l-6 -2170 6 -39 11067 -13c46,-1 62,-10 66,31l0 2182c-79,12 -253,3 -343,3 -1798,2 -10750,25 -10790,6l0 0zm9262 191l136 -1 139 1 -287 685c162,0 325,-1 486,0 111,0 226,-72 350,-135 253,-127 435,-213 660,-327l490 -243c79,-39 75,-58 75,-166 -2,-328 -1,-656 -2,-985 11,-91 6,-1331 -5,-1364 -23,-72 -157,-48 -290,-48 -345,0 -691,1 -1038,1l-130 1 -183 -3 -70 3 -78 0 -8055 9 -78 1 -78 -1 -184 1 -130 0 -1011 1c-85,0 -136,-16 -158,51 -18,58 -6,1877 -6,2032 0,87 -10,331 4,398 14,66 52,74 102,99l1366 673c45,22 306,17 390,11 40,-2 47,-8 96,-8l-285 -688 136 2 1 0 148 0 200 0 76 0 104 0 4541 1 2171 -1 94 0 103 0 200 0 0 0z"/>
    <path class="fil0" d="M2238 7846c116,196 336,458 494,619l323 305c74,65 151,120 230,180 161,120 327,222 505,314 404,209 774,340 1231,416 186,30 375,53 565,52 503,0 794,-22 1286,-167l191 -65c307,-109 554,-233 826,-404 318,-198 692,-510 925,-800 38,-46 74,-87 111,-133 32,-37 210,-278 223,-317l-94 0c-22,81 -347,467 -416,535 -333,338 -639,598 -1079,822 -156,79 -509,242 -675,276l-317 83c-216,47 -331,54 -531,81l-494 12c-47,0 -51,-9 -95,-10 -557,-12 -1110,-199 -1591,-439 -92,-47 -178,-92 -262,-147 -213,-140 -342,-225 -527,-388l-361 -352c-138,-149 -260,-307 -364,-473l-104 0 0 0z"/>
    <path class="fil0" d="M5717 9996c-1281,0 -2319,-505 -3128,-1309 -165,-164 -363,-405 -499,-608 -57,-84 -84,-131 -128,-233l-148 0 65 148c28,58 54,94 89,146 63,95 131,184 199,271 36,46 68,85 107,129 100,113 233,278 343,362l251 222c42,38 85,67 132,103 47,35 88,68 136,99 567,375 944,547 1644,707 368,84 707,92 1085,92 195,0 446,-37 638,-70 68,-11 337,-64 382,-90 236,-41 684,-234 875,-337 460,-246 626,-383 974,-680 144,-122 395,-403 510,-554 118,-154 148,-204 253,-358 36,-62 64,-107 90,-191l-136 1c-112,252 -430,628 -620,824 -499,509 -1107,901 -1828,1127 -391,124 -835,197 -1286,199l0 0z"/>
    <path class="fil1" d="M9251 7846c-231,402 -626,809 -987,1094 -180,142 -411,298 -638,408 -126,61 -228,112 -357,166 -94,38 -281,114 -384,131 -38,1 -129,32 -168,41 -490,124 -1045,163 -1550,91 -173,-24 -374,-56 -539,-105 -428,-125 -812,-277 -1184,-524 -193,-129 -250,-175 -427,-314 -78,-61 -334,-304 -383,-367l-103 -114c-95,-100 -321,-415 -369,-507l-200 0c44,102 71,149 128,234 136,203 334,443 499,607 809,804 1847,1310 3128,1309 451,-2 895,-75 1286,-199 721,-226 1329,-618 1828,-1128 190,-194 508,-571 620,-823l-200 0 0 0z"/>
    <path class="fil2 str0" d="M9877 5263l158 2 -5 -3853c0,-262 -4,-213 -208,-236 -41,-5 -86,-14 -124,-24 -82,-21 -153,-51 -214,-82 -226,-116 -440,-361 -496,-691 -46,-272 55,-248 -345,-248 -616,1 -6178,-5 -6227,14 -72,27 -53,145 -65,230 -63,405 -361,695 -706,785 -98,27 -169,19 -261,35 -95,17 -76,120 -76,218l1 3862 161 -1 0 -3762c7,-16 15,-114 26,-152 129,-37 275,-59 399,-127 34,-19 49,-25 79,-45 164,-107 224,-162 338,-320 82,-113 134,-221 172,-359 16,-55 40,-201 64,-208 511,0 5618,-4 5641,-18l372 0c68,32 179,-27 248,71 40,55 47,360 324,636 52,54 92,98 170,148 201,130 237,132 447,188 73,20 103,57 116,129 6,21 2,53 11,69l0 3739 0 0z"/>
    <path class="fil0 str1" d="M1565 2389l4 2886 78 -1 -4 -3774c91,-2 314,-96 380,-135 91,-55 147,-89 223,-160 144,-134 244,-247 329,-438 15,-34 23,-54 38,-92 19,-49 53,-151 58,-205l5988 -6c33,70 40,274 244,540 102,132 272,283 425,359 119,59 151,76 281,111 31,8 88,7 88,43l5 3748 78 0 -4 -3382c0,-111 9,-268 -2,-374 -12,-124 -21,-62 -235,-139 -88,-31 -180,-80 -257,-127 -36,-21 -73,-51 -106,-77 -101,-82 -199,-186 -266,-299 -87,-145 -126,-228 -167,-400 -14,-58 0,-77 -110,-82 -238,-11 -508,0 -750,1l-5274 15c-27,119 -68,276 -131,382 -36,58 -60,107 -101,161 -120,159 -234,264 -414,361 -124,66 -239,99 -389,134 -21,90 -9,797 -9,950z"/>
    <path class="fil0" d="M1309 5275l-1 -3862c0,-98 -19,-201 76,-218 92,-16 163,-8 261,-35 345,-90 643,-380 706,-785 12,-85 -7,-203 65,-230 49,-19 5611,-13 6227,-14 400,0 299,-24 345,248 56,330 270,575 496,691 61,31 132,61 214,82 38,10 83,19 124,24 204,23 208,-26 208,236l5 3853 130 -1c-1,-1313 -9,-2644 -4,-3957 1,-294 -217,-245 -344,-265 -401,-65 -700,-401 -712,-814 -8,-257 -215,-227 -383,-227 -2034,2 -4068,5 -6103,7 -94,0 -218,-13 -281,25 -160,96 -75,223 -153,456 -41,127 -142,285 -243,367 -53,42 -122,93 -184,121 -301,133 -383,45 -489,122 -61,45 -95,103 -95,209l5 3967 130 0 0 0z"/>
   </g>
   <path class="fil3" d="M470 6078c29,-5 61,-8 98,-11 37,-3 84,-4 139,-4 49,0 95,4 138,12 43,8 81,21 113,40 32,19 58,44 76,76 19,32 28,71 28,119 0,28 -4,54 -12,79 -9,24 -20,45 -34,63 -14,18 -30,33 -48,45 -17,12 -35,20 -54,22 20,3 43,9 68,19 24,9 47,24 69,43 21,19 38,43 53,73 14,30 21,66 21,108 0,58 -11,105 -32,141 -22,37 -51,66 -88,87 -36,21 -79,36 -127,44 -48,8 -98,12 -151,12 -41,0 -81,-1 -121,-3 -39,-2 -84,-6 -135,-13l-1 -952zm193 807c13,1 27,3 43,4 16,0 31,1 45,1 18,0 37,-2 58,-5 20,-4 39,-11 57,-21 17,-10 32,-24 43,-42 12,-19 17,-42 17,-71 0,-28 -4,-50 -13,-68 -9,-18 -21,-33 -38,-44 -16,-11 -36,-19 -58,-23 -22,-4 -47,-7 -75,-7l-79 0 0 276zm58 -421c22,0 42,-2 61,-6 19,-4 36,-11 50,-21 14,-11 25,-24 33,-41 8,-18 12,-40 12,-66 0,-26 -5,-47 -14,-63 -9,-16 -21,-29 -36,-38 -14,-9 -31,-16 -49,-19 -18,-3 -36,-4 -53,-4 -25,0 -46,1 -63,4l1 254 58 0zm768 -386c19,-3 36,-5 53,-6 17,-1 35,-2 56,-2 17,0 35,0 51,2 17,1 36,3 56,6l299 951c-36,5 -72,8 -106,8 -34,0 -66,-3 -98,-8l-53 -191 -315 1 -54 190c-32,6 -62,8 -91,8 -33,1 -65,-2 -97,-7l299 -952zm213 600l-111 -399 -114 400 225 -1zm408 -601c27,-5 53,-8 78,-8 26,0 54,3 82,8l368 606 0 -606c32,-6 62,-8 91,-8 27,0 54,2 79,7l2 952c-29,5 -54,8 -77,8 -25,0 -52,-3 -81,-8l-371 -604 1 604c-29,6 -57,8 -86,8 -29,0 -58,-2 -85,-7l-1 -952zm1513 770c12,25 21,50 29,76 7,26 13,52 16,79 -46,16 -87,28 -123,33 -37,5 -76,8 -119,8 -75,0 -141,-12 -197,-36 -56,-24 -104,-58 -142,-102 -39,-44 -68,-95 -87,-155 -20,-60 -29,-126 -30,-196 0,-71 10,-136 31,-197 20,-60 49,-112 87,-157 39,-44 86,-78 142,-103 56,-25 120,-37 191,-37 42,0 82,2 117,8 36,5 75,16 116,33 -2,26 -7,52 -16,77 -9,25 -18,51 -29,76 -31,-10 -58,-18 -82,-22 -24,-5 -52,-7 -85,-7 -84,0 -149,28 -195,83 -45,55 -68,137 -67,246 0,215 91,322 274,322 32,0 61,-2 86,-6 25,-5 52,-12 83,-23zm538 195c-72,0 -134,-12 -186,-37 -52,-24 -95,-58 -128,-102 -34,-44 -59,-95 -75,-155 -16,-59 -25,-124 -25,-195 0,-71 8,-136 24,-196 17,-61 42,-113 75,-157 34,-45 76,-79 128,-104 52,-25 114,-37 185,-37 72,0 134,12 186,37 52,24 95,59 128,103 34,44 59,96 75,157 17,60 25,126 25,196 0,71 -8,136 -24,195 -17,60 -41,111 -75,155 -33,44 -76,78 -128,103 -52,25 -114,37 -185,37zm-1 -161c137,0 205,-110 205,-329 0,-109 -17,-191 -50,-246 -33,-54 -84,-82 -154,-82 -139,1 -208,110 -207,329 0,219 69,328 206,328zm868 -807c37,-5 75,-8 116,-12 41,-3 86,-4 135,-4 167,0 294,41 380,124 87,82 131,207 131,373 0,166 -44,289 -132,368 -88,78 -219,118 -393,118 -45,0 -86,-2 -124,-5 -38,-3 -75,-6 -112,-11l-1 -951zm195 798c8,0 18,1 30,2 13,1 28,1 45,1 41,0 79,-4 114,-14 34,-9 65,-26 90,-51 26,-24 46,-57 61,-99 15,-41 22,-95 22,-160 0,-64 -7,-117 -23,-159 -15,-42 -35,-76 -61,-100 -25,-25 -54,-42 -88,-53 -33,-10 -68,-15 -105,-15 -12,0 -26,1 -43,1 -16,1 -30,2 -43,3l1 644zm727 -799l540 -1c5,27 8,54 8,81 0,29 -3,57 -8,83l-347 1 0 206 276 0c5,28 8,55 8,82 0,28 -3,56 -8,83l-275 1 0 251 356 0c5,26 8,53 8,80 0,29 -3,57 -8,84l-549 0 -1 -951zm994 -1c32,-6 64,-8 96,-8 32,0 65,2 98,7l0 374 319 -1 0 -373c33,-5 65,-8 97,-8 31,0 64,3 97,8l2 951c-34,6 -66,8 -97,8 -33,0 -65,-2 -98,-7l0 -412 -319 0 0 412c-33,5 -66,8 -96,8 -33,0 -66,-3 -98,-8l-1 -951zm1282 966c-72,0 -134,-13 -186,-37 -52,-25 -95,-59 -128,-103 -34,-43 -59,-95 -75,-154 -17,-60 -25,-125 -25,-196 0,-70 8,-136 24,-196 17,-61 41,-113 75,-157 33,-44 76,-79 128,-103 52,-25 114,-38 185,-38 72,0 134,13 186,37 52,25 95,59 128,103 34,44 59,97 75,157 16,60 25,126 25,196 0,71 -8,136 -24,196 -17,59 -42,111 -75,155 -34,43 -76,77 -128,102 -52,25 -114,37 -185,38zm-1 -162c137,0 205,-110 205,-328 0,-110 -17,-192 -50,-246 -33,-55 -84,-82 -154,-82 -139,0 -208,109 -207,328 0,219 69,328 206,328zm582 -806c38,-5 75,-9 109,-12 34,-3 71,-5 113,-5 48,0 96,5 144,13 47,9 89,25 127,47 38,23 69,53 92,92 24,38 35,87 36,146 0,35 -5,66 -14,93 -8,27 -20,51 -33,71 -14,20 -29,38 -45,52 -15,15 -30,26 -44,35l-23 15 232 402c-18,2 -36,3 -55,5 -20,2 -40,3 -60,3 -34,0 -67,-3 -99,-8l-250 -442 32 -16c13,-6 28,-14 45,-23 18,-10 35,-22 51,-37 16,-14 30,-32 42,-53 11,-21 17,-45 17,-73 0,-56 -16,-97 -48,-123 -32,-26 -73,-39 -123,-38 -19,0 -37,1 -53,4l1 803c-16,2 -32,3 -48,4 -16,2 -31,2 -46,2 -15,0 -31,0 -48,-1 -16,-1 -34,-2 -51,-5l-1 -951zm1020 -2c18,-2 36,-4 53,-6 17,-1 35,-2 55,-2 18,0 35,1 52,2 17,2 35,4 56,6l298 951c-36,6 -71,8 -106,8 -33,0 -66,-2 -97,-8l-54 -190 -315 0 -54 191c-31,5 -62,8 -91,8 -32,0 -65,-3 -96,-8l299 -952zm212 601l-110 -400 -115 400 225 0zm582 -91c-30,-11 -57,-24 -80,-37 -24,-14 -45,-30 -61,-49 -17,-19 -30,-42 -39,-68 -10,-27 -14,-59 -14,-96 -1,-45 7,-84 23,-119 15,-34 37,-63 65,-86 28,-24 62,-42 102,-54 39,-11 84,-17 133,-18 45,0 88,4 127,12 39,8 80,20 124,34 -6,52 -20,102 -43,151 -13,-5 -26,-10 -40,-15 -14,-6 -28,-10 -44,-14 -15,-3 -33,-6 -52,-8 -19,-2 -41,-3 -66,-3 -15,0 -30,1 -46,4 -15,2 -29,7 -41,14 -13,7 -23,18 -31,31 -8,14 -12,32 -12,54 0,18 3,32 10,44 6,12 14,22 25,31 10,8 22,15 36,21 13,6 26,11 39,16l80 31c33,13 64,26 91,41 27,14 51,31 70,52 19,20 33,46 44,75 11,30 16,66 16,109 0,45 -8,86 -24,123 -17,37 -40,69 -71,96 -31,26 -69,47 -114,62 -46,15 -98,23 -157,23 -29,0 -55,-1 -78,-3 -23,-2 -45,-4 -66,-8 -20,-4 -41,-9 -61,-16 -21,-6 -42,-13 -64,-22 3,-26 8,-52 15,-80 7,-28 15,-56 25,-84 37,15 72,26 104,34 33,7 68,11 105,11 55,0 99,-11 131,-32 31,-20 47,-52 47,-94 0,-21 -4,-39 -11,-53 -8,-14 -17,-26 -29,-36 -12,-10 -26,-18 -41,-24 -15,-7 -30,-13 -46,-19l-81 -31z"/>
   <g>
    <g>
     <g>
      <path class="fil2" d="M2540 2681l0 77c0,41 41,17 41,54 0,14 -121,348 -135,392 -13,41 -24,53 -23,108 0,101 1,163 -5,261 -2,30 0,39 13,55 10,11 22,26 42,26l359 0c0,-43 7,-76 19,-108 88,-232 494,-204 494,108l1072 0c0,-349 527,-348 527,0l391 0c26,0 56,-17 69,-30 11,-12 35,-46 35,-64l0 -370c0,-17 -31,-117 -37,-147 -25,-105 -74,-379 -184,-379l-2660 0c-11,0 -18,7 -18,17l0 0zm383 503c54,0 38,-82 38,-133 3,-291 22,-263 -106,-263l-166 -1c-42,0 -42,32 -55,65l-94 262c-12,31 -2,64 28,69 25,3 87,0 115,0 80,1 160,1 240,1zm144 -396c-32,11 -25,35 -25,74 0,51 -3,277 2,296 9,28 36,26 72,26 33,0 66,0 99,0 31,0 177,4 192,-4 44,-22 10,-97 -4,-142l-67 -230c-15,-27 -42,-21 -76,-21 -29,0 -178,-4 -193,1zm466 393c73,6 255,2 333,2 36,-7 28,-29 8,-98l-63 -217c-24,-86 -15,-82 -105,-82 -66,0 -132,1 -198,1 -78,0 -101,-7 -71,96 15,59 65,249 96,298zm474 2l262 0c96,0 78,-34 53,-119l-69 -241c-14,-41 -23,-37 -70,-37 -69,1 -138,1 -207,1 -131,0 -117,-8 -39,253 18,64 27,143 70,143zm460 0l252 0c96,0 86,-29 64,-106l-69 -238c-17,-60 -28,-53 -99,-53 -66,0 -132,1 -198,1 -34,0 -69,-8 -79,18 -12,29 4,61 11,87l68 234c11,33 13,57 50,57zm662 -396c-73,0 -278,-6 -320,4 -29,44 -5,82 9,133 14,44 28,90 40,135 43,156 17,125 226,125 28,0 56,-1 85,-1 105,0 101,-7 63,-145 -14,-46 -28,-91 -40,-136 -12,-39 -19,-115 -63,-115l0 0z"/>
      <path class="fil2" d="M4471 3631c0,76 5,116 64,175 174,171 483,-62 303,-295 -72,-93 -267,-105 -345,43 -10,21 -22,46 -22,77zm90 9c0,44 3,66 37,100 100,98 275,-35 173,-168 -41,-53 -152,-60 -196,25 -6,12 -14,25 -14,43l0 0z"/>
      <path class="fil2" d="M2877 3654c0,51 29,114 63,149 129,128 360,50 360,-159 0,-202 -300,-295 -403,-74 -10,20 -20,57 -20,84zm92 0c0,29 15,65 35,85 74,73 206,29 206,-90 0,-116 -171,-169 -231,-43 -5,11 -10,32 -10,48z"/>
     </g>
     <g>
      <path class="fil2" d="M7088 4639c0,13 7,22 8,35l24 100c1,7 2,6 4,16 0,4 1,3 2,7l15 62c2,5 1,21 18,21 6,0 11,-3 14,-6 11,-10 6,-10 9,-35 0,-3 1,-6 1,-9 2,-13 1,-14 5,-28l2 -6c6,-14 14,-30 25,-42 1,-1 2,-2 3,-3 0,0 0,0 0,0 2,0 2,-1 2,-1l13 -11c2,-1 1,-1 3,-2l24 -14c9,-4 15,-7 24,-10 4,-1 4,0 8,-2l39 -6c21,0 28,0 48,4 4,2 3,2 6,3l14 7c0,0 0,0 1,0 13,7 28,21 40,34l15 22c1,1 1,1 2,2l19 43c2,7 6,14 7,21l4 16c1,4 3,8 7,12l11 9c0,0 0,0 0,0l20 14c0,0 1,0 1,0 7,5 43,2 53,2 7,0 13,0 19,0 9,0 10,-1 18,-1 23,0 54,2 75,0 59,-5 160,-2 222,-2 51,0 93,-1 147,-1 50,0 91,-3 143,-3 17,0 116,2 131,0 6,-1 9,0 15,-1 11,-2 25,0 36,0 11,0 21,-4 29,-9 1,0 5,-3 6,-3 14,-13 7,-23 11,-37 1,-3 1,-2 2,-7 3,-13 2,-16 8,-29l3 -8c4,-7 7,-14 12,-22 0,0 0,0 0,0l29 -30c4,-3 7,-5 11,-9l39 -16c3,0 1,-1 6,-3 27,-6 28,-2 43,-5 12,-1 23,1 36,1 7,0 10,2 15,3 23,6 45,16 63,32 3,3 6,6 9,9 14,15 25,32 34,50l5 12c0,0 1,0 1,0 1,3 0,2 1,4 3,9 -2,-6 1,1 0,2 0,2 0,2 0,1 0,1 1,1 1,3 1,2 2,6l6 19c8,24 -2,38 26,28 9,-3 23,-3 31,-7 3,-1 2,-1 6,-2l30 -9c7,-3 11,-8 18,-14 1,-1 0,-1 2,-4 4,-4 9,-10 11,-16 0,-2 1,-7 1,-8 2,-10 8,-30 9,-40 0,-6 2,-9 3,-15l11 -64c2,-7 4,-11 4,-16l3 -16c2,-5 1,-10 3,-16 0,-3 1,-3 2,-7l5 -31c2,-10 6,-14 -4,-19 -10,-5 -19,-5 -26,-8l-24 -4c-7,-2 -11,-1 -17,-2 -6,-1 -12,-3 -16,-3l-34 -4c-11,-1 -25,0 -35,-2l-17 -2c-6,0 -9,-1 -18,-1 -13,0 -22,-3 -34,-3 -9,0 -11,-2 -18,-1 -14,0 -20,-2 -32,-8 -2,-1 -3,-2 -5,-3l-1 -1c-1,0 -1,0 -1,-1 -13,-10 -32,-31 -43,-42 0,0 -1,-1 -1,-1l-7 -8c0,0 0,0 0,-1 0,0 -1,0 -1,0 0,0 0,-1 0,-1l-8 -7c0,0 0,0 0,0l-14 -14c0,0 0,-1 0,-1l-3 -1c0,0 0,0 0,-1 -1,-1 -1,-1 -3,-2l-18 -19c-14,-13 -34,-33 -47,-48l-2 -3c-1,0 -1,0 -1,0l-27 -27c-1,-3 -1,-2 -2,-4 -11,-10 -25,-21 -36,-26 -1,-1 -2,-1 -3,-2l-11 -4c-4,-1 0,0 -3,-1 -11,-3 -24,0 -35,-2 -16,-4 -36,-3 -54,-3l-37 -3c-28,-3 -60,0 -89,-2 -5,0 -8,1 -14,1 -13,1 -28,0 -40,0 -23,0 -49,4 -73,4 -12,0 -25,0 -37,0 -25,0 -49,3 -73,3 -6,0 -12,0 -19,0 -17,0 -35,4 -52,4 -14,0 -24,1 -37,1l-52 4c-6,1 -14,5 -19,9 0,0 -3,2 -3,2l-74 69c0,0 -1,0 -1,0l-92 87c-1,1 0,1 -2,2 0,0 0,0 -1,1l-38 37c-4,3 -7,4 -12,7 -22,15 -16,13 -43,14 -5,0 -11,1 -16,2 -15,2 -47,0 -73,3 -13,2 -40,1 -54,2 -12,1 -25,3 -36,4 -13,0 -25,-1 -37,1 -21,2 -47,4 -69,6 -12,1 -25,1 -37,2 -12,2 -35,5 -47,8l-46 21c-4,5 -11,12 -11,19l0 0zm950 -123c0,10 0,26 -25,26l-344 2c-12,0 -13,-9 -2,-20l124 -130c14,-14 15,-19 32,-19l199 -4c19,0 16,3 16,20l0 125zm51 -1c0,11 0,27 24,27l337 2c12,0 22,-6 10,-20l-94 -133c-13,-15 -17,-26 -36,-26l-225 0c-19,0 -16,2 -16,21l0 129z"/>
      <path class="fil2" d="M7330 4744c70,0 127,57 127,127 0,70 -57,128 -127,128 -71,0 -127,-58 -127,-128 0,-70 56,-127 127,-127zm0 60c36,0 66,30 66,67 0,37 -30,67 -66,67 -37,0 -67,-30 -67,-67 0,-37 30,-67 67,-67z"/>
      <path class="fil2" d="M8597 4744c70,0 127,57 127,127 0,70 -57,128 -127,128 -70,0 -127,-58 -127,-128 0,-70 57,-127 127,-127zm0 60c37,0 66,30 66,67 0,37 -29,67 -66,67 -37,0 -66,-30 -66,-67 0,-37 29,-67 66,-67z"/>
     </g>
     <g>
      <path class="fil2" d="M6793 4478c3,20 -9,31 -24,39 -2,1 -209,42 -210,42 -29,6 -70,17 -99,28 -8,4 -10,6 -14,16 -3,9 -19,44 -26,51 -2,2 -8,3 -12,2 -12,-4 -8,-41 -8,-56 1,-23 4,-69 -4,-89 -8,-18 -14,-36 -25,-53 -28,-43 -44,-49 -85,-73 -87,-51 -260,-16 -304,83 -24,56 -21,55 -23,116 0,17 1,18 -6,30l-392 -2c-25,-6 -56,-2 -82,-2l-293 -2c-35,0 -190,-4 -200,1 -6,2 -9,7 -11,13 -7,16 -25,37 -46,36 -3,-6 -4,-5 -4,-16 -1,-33 3,-87 -1,-117 -1,-12 -3,-12 -6,-21 -40,-123 -145,-177 -273,-148 -14,3 -47,18 -59,25 -49,29 -96,89 -98,148 0,4 0,9 0,13 0,13 1,9 -3,13 -5,4 -1,4 -20,3 -7,0 -15,0 -22,0 -17,-1 -20,-5 -32,-12 -5,-5 -18,-18 -20,-24 -8,-24 -13,-101 -9,-123 2,-10 4,-10 7,-15 4,-6 3,-9 9,-14 32,-28 45,-56 65,-94 47,-89 418,-86 492,-102 8,-2 15,-8 23,-12l27 -20c10,-6 13,-7 21,-15 214,-209 513,-186 787,-178 29,1 138,9 155,18 4,3 6,5 13,8 13,6 13,10 22,22 6,9 14,78 16,93 2,19 -4,82 17,91 9,3 283,8 320,9 26,0 60,-1 85,2 25,2 58,2 84,3 21,0 153,4 167,9 3,1 24,10 28,14 12,17 67,234 73,260l0 0zm-1239 -289c-21,0 -18,-16 -18,-36 0,-18 0,-35 0,-52 1,-31 -8,-112 9,-123 10,-5 341,14 360,26 1,22 -2,32 -4,53 -2,23 -10,46 -23,65 -6,7 -11,8 -17,15 -7,6 -8,5 -18,10 -50,33 -229,40 -289,42zm-98 -6c-2,1 0,0 -4,2 -22,9 -315,17 -328,13 0,0 -2,0 -2,0 -2,-1 -9,-58 5,-69 4,-3 2,-3 5,-6 92,-76 221,-128 342,-135 15,1 8,6 4,34 -5,45 -10,121 -22,159 0,1 0,1 0,2l0 0z"/>
      <path class="fil4" d="M5894 4004c10,13 0,51 -6,66 -2,8 -2,17 -4,25 -2,7 -16,26 -23,31 -4,3 -3,0 -7,5 -6,7 1,3 -8,8 -19,7 -13,-8 -13,-40l0 -78c0,-26 -7,-20 61,-17z"/>
      <path class="fil2" d="M4703 4429c105,0 189,85 189,190 0,105 -84,189 -189,189 -105,0 -190,-84 -190,-189 0,-105 85,-190 190,-190zm0 96c51,0 94,42 94,94 0,51 -43,94 -94,94 -53,0 -95,-43 -95,-94 0,-52 42,-94 95,-94z"/>
      <circle class="fil5" cx="6181" cy="4647" r="190"/>
      <path class="fil2" d="M6181 4458c105,0 190,84 190,189 0,105 -85,189 -190,189 -105,0 -190,-84 -190,-189 0,-105 85,-189 190,-189zm0 95c52,0 94,42 94,94 0,52 -42,95 -94,95 -52,0 -94,-43 -94,-95 0,-52 42,-94 94,-94z"/>
     </g>
    </g>
    <g>
     <path class="fil0" d="M6330 738c-1138,0 -2086,836 -2260,1926l168 0c172,-999 1045,-1762 2092,-1762 1171,0 2122,953 2122,2124 0,492 -168,945 -451,1306 11,-1 21,-1 31,-1 12,0 25,0 37,0 24,0 50,-4 73,-4 12,0 27,1 40,0 6,0 9,-1 14,-1 4,1 10,1 14,1 257,-370 408,-819 408,-1301 0,-1262 -1026,-2288 -2288,-2288l0 0z"/>
     <rect class="fil0" transform="matrix(0.271329 -0.393844 0.393844 0.271329 4735.74 2035.22)" width="218" height="366"/>
     <rect class="fil0" transform="matrix(0.287713 -0.382039 0.382039 0.287713 7702.71 4080.66)" width="218" height="366"/>
     <rect class="fil0" transform="matrix(0.437013 -0.194298 0.194298 0.437013 5424.25 1388.02)" width="218" height="366"/>
     <rect class="fil0" transform="matrix(0.405333 0.253846 -0.253846 0.405333 7321.51 1441.92)" width="218" height="366"/>
     <rect class="fil0" transform="matrix(0.192875 0.437643 -0.437643 0.192875 8013.11 2170.5)" width="218" height="366"/>
     <rect class="fil0" x="6222" y="1101" width="223" height="243"/>
     <rect class="fil0" transform="matrix(1.26665E-014 0.47826 -0.729895 1.93309E-014 8257.21 2912.62)" width="468" height="333"/>
     <polygon class="fil0" points="6407,2925 7362,2925 7362,3130 6407,3130 6257,3130 6257,2925 6257,1509 6407,1509 "/>
    </g>
   </g>
   <g>
    <g>
     <polygon class="fil0 str2" points="5769,8917 5827,9088 6020,9087 5864,9192 5924,9362 5769,9257 5613,9363 5672,9192 5516,9088 5709,9088 "/>
     <polygon class="fil2" points="6576,8834 6613,8949 6734,8947 6636,9019 6674,9133 6576,9062 6480,9133 6517,9019 6419,8949 6540,8949 "/>
     <polygon class="fil2" points="6229,8902 6266,9017 6387,9017 6289,9087 6327,9201 6229,9131 6133,9201 6169,9087 6072,9017 6193,9017 "/>
     <polygon class="fil2" points="5303,8903 5340,9018 5459,9018 5363,9088 5399,9202 5303,9132 5205,9202 5243,9088 5146,9018 5266,9018 "/>
     <polygon class="fil2" points="4954,8833 4990,8947 5111,8947 5013,9018 5051,9132 4954,9062 4857,9132 4894,9018 4796,8947 4917,8947 "/>
    </g>
    <g>
     <path class="fil6" d="M4447 8635c-47,0 -85,-6 -114,-19 -31,-13 -53,-31 -69,-56 -15,-23 -26,-52 -30,-86 -4,-34 -4,-72 0,-115l30 -353c17,-2 32,-4 44,-5 12,-1 23,-1 35,-1 9,0 20,0 31,1 12,1 27,3 44,5l-30 335c-3,28 -4,54 -3,74 0,20 3,36 8,49 5,12 13,22 23,27 11,5 25,9 42,9 18,0 33,-4 44,-9 12,-5 21,-15 29,-27 7,-13 12,-29 17,-49 3,-20 7,-46 9,-74l29 -335c17,-2 32,-4 44,-5 12,-1 23,-1 33,-1 10,0 21,0 34,1 11,1 26,3 42,5l-31 353c-4,43 -10,81 -21,115 -10,34 -25,63 -45,86 -20,25 -46,43 -78,56 -31,13 -71,19 -117,19z"/>
     <path class="fil6" d="M4796 8006c13,-2 24,-4 35,-5 10,-1 21,-2 30,-2 11,0 21,1 33,2 10,2 20,3 28,5l170 338 30 -338c15,-2 29,-4 41,-5 12,-1 23,-2 33,-2 9,0 20,1 31,2 11,1 22,3 34,5l-55 616c-6,2 -14,3 -25,6 -11,2 -23,3 -35,3 -15,0 -28,-1 -39,-3 -12,-3 -20,-5 -25,-6l-171 -336 -30 336c-26,6 -49,9 -70,9 -20,0 -43,-3 -69,-9l54 -616z"/>
     <path class="fil6" d="M5623 8301c-2,20 -6,43 -14,67l-167 0 -10 123 216 0c3,24 4,46 2,66 -2,21 -6,44 -13,68l-370 0 55 -621 364 0c1,13 2,26 2,36 0,11 0,21 -1,32 -2,18 -6,40 -13,68l-212 0 -8 94 167 0c3,25 3,48 2,67l0 0z"/>
     <path class="fil3" d="M5746 8006c12,-2 26,-3 39,-5 15,-1 28,-2 40,-2 12,0 24,1 37,2 14,2 26,3 38,5l94 322 156 -322c11,-2 23,-3 34,-5 13,-1 24,-2 36,-2 11,0 24,1 37,2 12,2 25,3 36,5l-24 616c-9,2 -20,4 -31,6 -12,2 -27,3 -45,3 -20,0 -43,-3 -71,-9l19 -356 -115 235c-11,2 -21,3 -32,5 -10,1 -20,1 -28,1 -10,0 -18,0 -27,-1 -10,-1 -18,-2 -29,-5l-64 -232 -40 353c-25,6 -48,9 -70,9 -20,0 -43,-3 -69,-9l79 -616 0 0z"/>
     <path class="fil3" d="M6989 8140l-145 0c-3,-25 -3,-49 -1,-68 1,-19 5,-41 13,-68l441 0c1,13 2,26 2,36 0,12 0,21 -1,32 -2,18 -6,40 -12,68l-145 0 -42 482c-32,6 -57,9 -77,9 -21,0 -47,-3 -76,-9l43 -482z"/>
     <path class="fil3" d="M6709 8005c-16,-1 -31,-3 -44,-4 -13,-1 -25,-2 -36,-2 -13,0 -26,1 -39,2 -14,1 -27,3 -43,4l-240 599 146 -21 59 -147c37,-32 84,-76 112,-77 9,0 22,16 36,31l50 193 132 20 -133 -598zm-85 117l13 92 62 8 -50 59 18 70 -46 -40 -102 79 48 -123 -62 -70 95 11 24 -86z"/>
    </g>
   </g>
  </g>
 </g>
</svg>
